<svg xmlns="http://www.w3.org/2000/svg" width="378" height="135.6" viewBox="0 0 378 135.6"><g fill-rule="evenodd" clip-rule="evenodd" fill="#1A1A18"><path d="M6.3 129.5C56.8 116.4 152 100 236.8 90.4c-1.7 2.6-3.1 5.4-4.2 8.3-.8 2-1.3 4-1.7 6.1-13.9 1.2-27.9 2.5-41.9 3.7-62.4 5.5-133.7 15.2-179.5 27.1l-3.2-6.1zM257.8 88c45.3-4.6 81.9-8.2 109.1-6.6l-5.4 16.3c-32.9-1.9-63.2 1.4-107.5 5v-.3c.1-2.1.4-4.1.7-6.2.2-1 .3-2 .5-2.9.1-.8.3-1.7.5-2.5.7-1 1.4-1.9 2.1-2.8z"/><path d="M120.2 70.3c0 1.3.1 2.6.2 3.9.1 1.3.4 2.4.9 3.3.4.9 1 1.7 1.8 2.2.7.5 1.7.7 2.9.6 1.3-.2 2.5-.6 3.6-1.3 1.1-.8 2.1-1.7 3-2.8.9-1.1 1.7-2.3 2.4-3.7.7-1.4 1.3-2.8 1.8-4.2-.5.1-1 .3-1.5.3-.5.1-1 .2-1.6.2-2.8.3-5.2-.2-7.2-1.6-2-1.4-3.6-3.3-4.7-5.8-.4 1.6-.8 3.1-1.1 4.6-.3 1.6-.5 3-.5 4.3zm-99.1-3.5c-1 4.1-2.1 8.5-3.1 13.2-1 4.1-2 8.8-3.1 14.2-1.1 5.4-2.3 11.1-3.5 17.2.4.3 1 .5 1.8.6.7.1 1.5.1 2.2.2.8.1 1.7 0 2.6-.1 3.3-.4 6.6-1.5 10.1-3.2 3.4-1.8 6.5-4.1 9.4-6.9 2.9-2.8 5.3-6.1 7.2-9.9 1.9-3.8 3.1-7.9 3.5-12.3.2-2 0-3.8-.4-5.3s-1-2.9-1.8-4.1c-.8-1.2-1.7-2.2-2.6-3.1-1-.9-2-1.6-3.1-2.2-3.4 2.2-7.1 4.2-11.1 5.9-1.3.5-2.4.7-3.4.6-1-.2-1.8-.5-2.4-.9-.7-.5-1.2-1-1.5-1.7-.5-.9-.7-1.5-.8-2.2zm1.9-7.5c-.1.7-.3 1.5-.5 2.3-.2.8-.4 1.5-.6 2.4.9-1.1 2.4-2.1 4.5-3.2 2.1-1 4.1-1.7 6-1.9 1-.1 2-.2 3-.2.9 0 1.9 0 2.7.1 2-1.6 4-3.5 6-5.8 1.9-2.3 3.6-4.8 5-7.3 1.4-2.6 2.6-5.1 3.5-7.7.9-2.6 1.5-5 1.7-7.1.4-5.1-.4-8.8-2.6-11-2.2-2.2-5.2-3.1-9.2-2.6-2.6.3-5.4 1.1-8.2 2.4-.6 2-1.3 4.4-2.2 7.4-.9 2.9-1.8 6.1-2.8 9.6-1 3.5-2 7.2-3.1 11-1.2 3.8-2.3 7.7-3.2 11.6zM59.4 82c-.4 5-1.9 9.5-4.4 13.7-2.5 4.2-5.6 7.8-9.5 11-3.9 3.1-8.2 5.7-13 7.6-4.8 2-9.8 3.2-15 3.8-1.9.2-3.7.3-5.3.3-1.7-.1-3.1-.2-4.4-.4-1.3-.2-2.4-.4-3.4-.7-.9-.2-1.6-.4-1.9-.6-.7-.3-1.2-.7-1.6-1.2-.4-.5-.6-1.3-.7-2.3-.1-.6-.1-1-.1-1.4 0-.3 0-.7.1-1.1.1-.4.2-.9.4-1.5s.4-1.5.7-2.7c.2-.7.7-2.8 1.7-6.4 1-3.6 2.2-8 3.6-13.2C8 81.7 9.5 76.1 11.2 70c1.6-6.1 3.2-11.9 4.8-17.6 1.5-5.7 2.9-10.8 4.2-15.4 1.3-4.6 2.2-8 2.8-10.2-1 .9-2 1.7-3 2.7-1 .9-2 1.9-3 3-1.1 1.1-2.2 1.6-3.2 1.4-1.1-.2-1.8-1-2.3-2.4-.1-.7-.2-1.5-.3-2.3-.1-.6-.1-1.4.1-2.3.1-.9.4-1.7.8-2.6 2.4-1.7 4.8-3.3 7.1-4.6 2.3-1.3 4.5-2.5 6.6-3.5.5-1.3.9-2.3 1.5-3 .5-.7 1.1-1.2 1.7-1.5.6-.3 1.2-.4 1.9-.4s1.4 0 2.1.1c1.6.2 2.7.6 3.2 1.2 1-.3 2-.5 3-.7 1-.2 2-.3 3-.5 4.3-.5 8-.4 11.1.3 3.2.7 5.7 1.9 7.8 3.5 2 1.6 3.5 3.6 4.4 6 .9 2.4 1.2 5 1 7.8-.2 2.4-.9 5-1.9 7.8-1.1 2.7-2.5 5.5-4.2 8.2-1.7 2.7-3.8 5.4-6.2 8.1-2.3 2.7-5 5.1-7.8 7.5 2.3 1.1 4.3 2.4 6 3.9 1.8 1.6 3.2 3.3 4.4 5.2 1.2 1.9 2 3.9 2.5 6 .1 2.2.2 4.3.1 6.3zm16.5-6.5c0 1.3.1 2.6.2 3.9.1 1.3.4 2.4.9 3.3.4.9 1 1.7 1.8 2.2.7.5 1.7.7 2.9.6 1.3-.2 2.5-.6 3.6-1.3 1.1-.8 2.1-1.7 3-2.8.9-1.1 1.7-2.3 2.4-3.7.7-1.4 1.3-2.8 1.8-4.2-.5.1-1 .3-1.5.3-.5.1-1 .2-1.6.2-2.8.3-5.2-.2-7.2-1.6-2-1.4-3.6-3.3-4.7-5.8-.4 1.6-.8 3.1-1.1 4.6-.4 1.6-.5 3-.5 4.3zm7-20.2c1.1-1.5 2.3-2.7 3.6-3.7 1.3-.9 2.6-1.5 4-1.6.9-.1 1.6.2 2.3.9.6.7 1.1 1.6 1.5 2.8.4 1.2.7 2.5.8 3.9.1 1.4.1 2.9 0 4.3 0 .6-.1 1.3-.3 2.1-.2.8-.4 1.7-.6 2.7-.4.1-.7.2-1.1.3-.4.1-.7.1-1.1.2-2.3.3-4 .1-5.3-.4-1.3-.6-2.2-1.3-2.8-2.3-.6-1-1-2.1-1.1-3.3-.2-1.3-.2-2.5-.2-3.7 0-.8.1-1.5.3-2.2zm18.6 14.6c-.7 2.9-1.7 5.6-3 8.2-1.2 2.6-2.7 4.8-4.4 6.8-1.7 2-3.7 3.6-5.8 4.8-2.2 1.3-4.5 2-7.1 2.3-3 .4-5.4 0-7.1-1.1-1.7-1.1-3-2.5-3.8-4.3-.8-1.8-1.4-3.8-1.5-6.1-.2-2.3-.3-4.4-.3-6.4 0-1.4.2-2.9.5-4.7.3-1.7.8-3.5 1.4-5.3.6-1.8 1.4-3.7 2.3-5.5.9-1.9 2-3.6 3.2-5.2.4-1.3 1.1-2.5 2-3.5.9-1.1 2-2 3.2-2.7 1.2-.8 2.5-1.4 3.9-1.9s2.7-.8 4.1-1h.6c.2.1.4.1.6.2 1 0 2.1.2 3.6.7 1.4.5 2.8 1.3 4.2 2.5 1.4 1.2 2.5 2.7 3.5 4.6.9 1.9 1.4 4.3 1.4 7.2 0 .6 0 1.3-.1 2.2-.1.9-.2 1.6-.2 2.2 1.7-.9 3.5-1.9 5.3-3 1.8-1.2 3.6-2.4 5.4-3.7 1.1-.8 2.2-1.7 3.2-2.5.2-.4.3-.7.5-1.1.9-1.9 2-3.6 3.2-5.2.5-1.3 1.1-2.5 2-3.5.9-1.1 2-2 3.2-2.7 1.2-.8 2.5-1.4 3.9-1.9s2.7-.8 4.1-1h.6c.2.1.4.1.6.2 1 0 2.1.2 3.6.7 1.4.5 2.8 1.3 4.2 2.5 1.4 1.2 2.5 2.7 3.5 4.6.9 1.9 1.4 4.3 1.4 7.2 0 .6 0 1.3-.1 2.2-.1.9-.2 1.6-.2 2.2 1.7-.9 3.5-1.9 5.3-3 1.8-1.2 3.6-2.4 5.4-3.7 1.7-1.3 3.3-2.5 4.8-3.8.9-.8 1.7-1.5 2.4-2.2.4-2.3.9-4.7 1.4-7.2.9-4.7 1.9-9.2 2.9-13.6-1.3.3-2.5.6-3.8.9-1.2.3-2.4.5-3.4.6-2.3.3-4.6.3-6.7 0-2.1-.3-3.6-.7-4.7-1-.6-.2-.8-.6-.8-1.2.1-.6.3-1.1.7-1.7.4-.6.8-1.1 1.4-1.6.5-.5 1-.7 1.5-.8 1.4 0 2.9-.1 4.5-.1 1.6-.1 3.4-.3 5.3-.6 1.4-.2 2.7-.5 4-.8 1.3-.3 2.6-.6 3.8-1 1-3.6 1.9-6.8 2.8-9.5.9-2.7 1.7-4.6 2.5-5.7.2-.4.7-.8 1.5-1.1.8-.4 1.6-.6 2.5-.9.9-.2 1.7-.3 2.5-.3s1.4.2 1.8.6c.4.6.5 2 .4 4.5-.1 2.4-.5 5.6-1.2 9.4 3.1-.4 5.8-.5 8.2-.5 2.4.1 4.4.2 6.1.4 1.7.2 3 .5 4.1.7 1 .3 1.8.5 2.3.6.5.1.8.4.8 1s-.1 1.2-.3 1.8c-.3.7-.7 1.2-1.3 1.7-.6.5-1.2.7-2 .7-.7 0-1.6 0-2.5-.2-.9-.1-2-.2-3.3-.2-1.3 0-2.8 0-4.6.1-1.8.1-3.8.2-6.2.5-.4.1-.9.1-1.5.2-.5.1-1.1.2-1.7.3-.3 1.2-.6 2.4-.8 3.6-.3 1.2-.6 2.4-1 3.7-1 3-2.1 6.4-3.3 10-1.1 3.1-2.4 6.7-4 10.8-1.5 4.1-3.3 8.4-5.2 13-.4 3.2-.4 5.6.2 7.2.5 1.6 1.2 2.7 2 3.3.9.7 2.1 1 3.5.9 1.1 0 2.4-.5 4-1.6s3.2-2.5 4.9-4.3c1.7-1.7 3.4-3.6 5.1-5.7 1.7-2 3.3-4 4.8-5.9 1.1-1.4 2.1-2.7 2.9-4l.3-1.5c.6-3.4 1.4-6.7 2.3-9.8.9-3.1 2-5.5 3.1-7.1.4-.5 1.1-.9 2.1-1.4 1-.4 2.1-.8 3.2-1.1 1.1-.3 2.1-.5 3-.7.9-.1 1.4-.2 1.6-.2.1.1-.1.9-.5 2.4-.5 1.5-1 3.3-1.7 5.4-.7 2-1.4 4.2-2.1 6.3-.7 2.2-1.3 3.9-1.7 5.3-.4 1.4-.8 2.9-1.3 4.6-.5 1.7-1 3.4-1.4 5-.4 1.6-.7 3.1-.8 4.5-.1 1.4 0 2.5.3 3.2.4.8.8 1.4 1.2 1.7.4.3.9.4 1.4.3 1.5-.2 3.3-1.2 5.6-3.1 2.2-1.9 4.5-4.1 6.8-6.6 2.2-2.4 4.3-4.8 6.2-7.3.3-1.5.8-3 1.3-4.6 1.3-3.6 3.1-7 5.3-10.1 2.2-3.1 4.7-5.8 7.5-7.9 2.8-2.1 5.7-3.4 8.6-3.7 1.8-.2 3.4 0 4.6.6 1.2.6 2.3 1.4 3.1 2.4.8 1 1.4 2.1 1.8 3.3.4 1.2.7 2.3.8 3.2.1-.9.3-1.8.4-2.8.2-.8.3-1.7.4-2.7.2-1 .3-1.9.4-2.8.4-.4.9-.8 1.5-1.1.5-.3 1.1-.5 1.7-.7.7-.2 1.3-.4 2-.6.7-.1 1.3-.1 1.9-.1 1.2 0 2 .3 2.4.9-2.1 7-3.5 12.2-4.4 15.7-.5 2-.9 3.7-1.2 5.1-.3 1-.7 2.7-1.3 4.9-.6 2.2-1.2 4.7-1.9 7.6-.7 2.9-1.5 6-2.3 9.2-.8 3.3-1.6 6.5-2.3 9.7 1.6-1.8 3.4-3.7 5.2-5.8 1.9-2 3.8-4.2 5.7-6.4 1.9-2.2 3.8-4.4 5.7-6.8 1.8-2.2 3.5-4.5 5.1-6.7.1-1.3.2-2.6.4-4 .4-2.5.8-4.8 1.3-7s1-4 1.4-5.5c.4-1.5.7-2.5.8-2.9.7-2.2 1.5-4.2 2.6-5.9 1-1.7 2.5-2.9 4.4-3.8.7-.2 1.5-.5 2.3-.7.7-.2 1.3-.3 2-.4.7-.1 1.4 0 1.9.1-2 5.3-3.5 9.7-4.7 13.2-1.1 3.5-2 6.4-2.6 8.6-.7 2.5-1.1 4.5-1.2 6-.4 3.3-.1 5.8.9 7.4 1 1.6 2.9 2.2 5.8 1.8 1.9-.2 3.7-1.2 5.5-2.8 1.8-1.6 3.4-3.7 4.8-6.1-.2-1.2-.3-2.3-.3-3.6 0-2.3.2-4.7.6-6.9.4-2.3.9-4.4 1.4-6.4.5-2 1.1-3.8 1.7-5.4.6-1.6 1.2-2.9 1.6-3.8.8-1.8 1.5-3 2.2-3.5.7-.5 1.7-.8 3.2-1.1.6-.1 1.1-.2 1.5-.2h1c.9.1 1.3.5 1.3 1.2 0 1.2-.1 2.9-.2 5.3-.2 2.4-.6 4.8-1.3 7.4-.5 2.1-1 3.9-1.5 5.4-.5 1.5-.9 2.7-1.4 3.8-.4 1-.9 1.9-1.3 2.6-.5.7-.8 1.3-1.2 1.9.2 2.2.3 3.9.6 5.2.2 1.3.5 2.3.8 2.9.3.7.7 1.1 1.2 1.3.5.2 1 .3 1.6.2 1-.1 2.2-.7 3.6-1.9s2.9-2.6 4.4-4.2c1.5-1.7 3-3.5 4.5-5.5.9-1.2 1.7-2.3 2.5-3.4.4-2.8 1.3-5.7 2.7-8.8 1.6-3.5 3.5-6.8 5.8-9.9 2.3-3.1 4.9-5.7 7.8-7.8 2.9-2.2 5.8-3.4 8.7-3.8 2.8-.3 4.8.1 6.1 1.4 1.2 1.2 1.8 2.9 1.7 5-.2 2.3-.9 4.5-1.9 6.5-1.1 2-2.3 3.9-3.8 5.6-1.5 1.7-3 3.3-4.7 4.7-1.7 1.4-3.2 2.8-4.7 3.9-1.6 1.3-3.2 2.5-4.6 3.7-1.5 1.2-2.8 2.2-3.8 3.2.1 1.8.4 3.3 1 4.5.6 1.2 1.3 2.1 2.2 2.8.9.7 1.9 1.1 3 1.3 1.1.2 2.3.2 3.5.1 2.5-.3 5.1-1.4 7.8-3.3s5.4-4.1 8-6.6c2.6-2.5 5-5.2 7.3-7.8 2.2-2.7 4.1-5 5.6-6.9.5-.7 1-1.1 1.6-1.2.5-.2 1-.2 1.3.1.3.2.5.6.5 1.3 0 .6-.2 1.4-.8 2.2-2.2 3.5-4.7 6.9-7.5 10.3-2.8 3.4-5.7 6.4-8.9 9.2s-6.3 5-9.6 6.9c-3.2 1.9-6.4 3-9.5 3.3-1.6.2-3.4 0-5.2-.5-1.9-.6-3.6-1.5-5.1-3-1.5-1.4-2.8-3.4-3.7-5.8-.3-.9-.6-2-.8-3.1-1 1.4-2.1 2.8-3.2 4.1-2.5 2.9-4.9 5.4-7.4 7.5-2.5 2.1-4.8 3.2-7 3.5-2 .2-3.5-.3-4.7-1.5-1.1-1.2-2.1-3.1-2.9-5.5-1.7 2.8-3.7 5.1-5.9 6.8-2.3 1.7-4.8 2.7-7.6 3-2.8.3-5.1.1-6.8-.5-1.7-.7-3.1-1.6-4.1-2.7-1-1.2-1.7-2.5-2.1-3.9-.1-.4-.2-.9-.3-1.3l-.8 1.2c-1.4 2-2.8 3.9-4.3 5.9-1.5 2-3 3.9-4.6 5.9-1.5 1.9-3 3.7-4.4 5.4-1.5 1.6-3.1 3.4-4.8 5.2-1.7 1.9-3.5 4-5.2 6.4-.3 1.4-.5 2.7-.7 3.8-.2 1.1-.4 2.1-.5 3-.4 2.6-.6 4.8-.7 6.6s-.2 3.4-.2 4.7c0 1.4 0 2.6.1 3.7s.1 2.3.1 3.6c.1 2.6 0 4.5-.3 5.5s-1.1 1.7-2.6 1.8c-.7.1-1.7-.1-2.9-.7-1.2-.5-2.3-1.3-3.4-2.4-1.1-1-2-2.4-2.8-3.9-.8-1.6-1.2-3.5-1.2-5.6 0-2.8.5-5.6 1.7-8.4 1.1-2.8 2.6-5.6 4.4-8.4.5-1.9 1.1-4 1.7-6.4.6-2.4 1.3-4.8 1.9-7.2.7-2.4 1.3-4.9 2-7.4s1.3-4.8 1.9-7.1c-.8 1.2-1.7 2.4-2.6 3.6-1 1.2-2 2.3-3.1 3.3s-2.3 1.9-3.5 2.6c-1.3.7-2.6 1.1-4 1.3-3.5.4-6.1 0-8-1.2-1.9-1.2-3.3-2.6-4.2-4.4-.9-1.8-1.5-3.7-1.7-5.7-.1-1-.2-2-.2-2.8-1.3 1.6-2.6 3.1-3.9 4.6-2.6 2.9-5.1 5.4-7.5 7.5s-4.5 3.3-6 3.6c-1.2.2-2.5.2-3.7-.2-1.2-.3-2.3-.9-3.3-1.6-1-.7-1.8-1.6-2.5-2.7-.7-1-1-2.2-1.1-3.4-.2-1.8-.2-4.3 0-7.5v-.1c-2.2 3.2-4.5 6.2-7 9.1-2.6 3.1-5.2 5.8-7.7 7.9-2.5 2.1-4.6 3.3-6.3 3.5-2.4.3-4.4 0-6-.7-1.6-.8-2.9-1.8-3.8-3.1-.9-1.3-1.6-2.7-1.9-4.3-.4-1.6-.5-3.1-.3-4.5.1-1.2.3-3.3.8-6.4.4-3.1 1-6.7 1.7-10.8v-.1c-1.2 1.1-2.6 2.4-4.1 3.7-2 1.8-4.3 3.5-6.7 5.3-2.4 1.7-4.7 3.1-6.9 4.1-.7 2.9-1.7 5.6-3 8.2-1.2 2.6-2.7 4.8-4.4 6.8-1.7 2-3.7 3.6-5.8 4.8-2.2 1.2-4.5 2-7.1 2.3-3 .4-5.4 0-7.1-1.1-1.7-1.1-3-2.5-3.8-4.3-.8-1.8-1.4-3.8-1.5-6.1-.2-2.3-.3-4.4-.3-6.4 0-1.4.2-2.9.5-4.7.2-.9.4-1.7.6-2.6-1.7 1.4-3.5 2.8-5.4 4.2-2.4 1.4-4.7 2.8-6.9 3.8zm25.7-19.8c1.1-1.5 2.3-2.7 3.6-3.7 1.3-.9 2.6-1.5 4-1.6.9-.1 1.6.2 2.3.9.6.7 1.1 1.6 1.5 2.8.4 1.2.7 2.5.8 3.9.1 1.4.1 2.9 0 4.3 0 .6-.1 1.3-.3 2.1-.2.8-.4 1.7-.6 2.7-.4.1-.7.2-1.1.3-.4.1-.7.1-1.1.2-2.3.3-4 .1-5.3-.4-1.3-.6-2.2-1.3-2.8-2.3-.6-1-1-2.1-1.1-3.3-.2-1.3-.2-2.5-.2-3.7 0-.8.1-1.5.3-2.2zm88.6-41c.2-.8.3-1.6.3-2.6s-.2-1.8-.5-2.5-.7-1.3-1.3-1.7c-.5-.4-1.2-.5-2-.3s-1.8.9-2.9 1.8c-1.1 1-2 2.1-2.7 3.4-.7 1.3-1.1 2.6-1 4 .1 1.3.9 2.5 2.4 3.5.5.4 1.2.4 2 .2s1.6-.6 2.4-1.2c.8-.6 1.5-1.3 2.1-2.1.5-.8 1-1.6 1.2-2.5zm15.6 51.5c0 2.1.3 3.7.8 4.8.5 1.1 1.2 1.9 2 2.4s1.6.7 2.4.7c.8 0 1.5-.1 2-.1 1.6-.2 3.1-1 4.5-2.5 1.5-1.5 2.8-3.2 4-5.3 1.2-2 2.3-4.2 3.2-6.6.9-2.3 1.6-4.5 2-6.5.2-1.1.4-2.1.6-3 .2-.9.4-1.7.5-2.3-1.4.3-2.4.1-2.9-.5-.5-.7-.8-1.9-.9-3.7 0-.7-.1-1.5-.2-2.3-.2-.8-.4-1.6-.8-2.2-.4-.7-.8-1.2-1.4-1.5-.6-.4-1.3-.5-2.2-.4-1.9.2-3.7 1.3-5.3 3.3-1.7 2-3.1 4.4-4.3 7.2-1.3 2.8-2.2 5.9-2.9 9.2-.8 3.3-1.1 6.4-1.1 9.3zm117.7-42.2c-.9.1-1.9.7-3.1 1.7-1.2 1-2.4 2.4-3.6 4.2-1.2 1.8-2.3 3.9-3.3 6.5-1 2.5-1.8 5.3-2.3 8.5.9-.8 1.8-1.5 2.9-2.4 1-.8 2.1-1.7 3.1-2.6 3.1-2.8 5.4-5.2 6.6-7.2 1.2-2 2-3.6 2.1-5 .1-1.4 0-2.4-.4-3-.6-.5-1.2-.8-2-.7z"/></g></svg>