<?xml version="1.0" encoding="utf-8"?>
<!-- Generator: Adobe Illustrator 16.0.0, SVG Export Plug-In . SVG Version: 6.00 Build 0)  -->
<!DOCTYPE svg PUBLIC "-//W3C//DTD SVG 1.1//EN" "http://www.w3.org/Graphics/SVG/1.1/DTD/svg11.dtd">
<svg version="1.1" id="Layer_1" xmlns="http://www.w3.org/2000/svg" xmlns:xlink="http://www.w3.org/1999/xlink" x="0px" y="0px"
	 width="378px" height="135.6px" viewBox="0 0 378 135.6" enable-background="new 0 0 378 135.6" xml:space="preserve">
<g>
	<path fill-rule="evenodd" clip-rule="evenodd" fill="#1A1A18" d="M6.3,129.5c50.5-13.1,145.7-29.5,230.5-39.1
		c-1.7,2.6-3.1,5.4-4.2,8.3c-0.8,2-1.3,4-1.7,6.1c-13.9,1.2-27.9,2.5-41.9,3.7C126.6,114,55.3,123.7,9.5,135.6L6.3,129.5z"/>
	<path fill-rule="evenodd" clip-rule="evenodd" fill="#1A1A18" d="M257.8,88c45.3-4.6,81.9-8.2,109.1-6.6l-5.4,16.3
		c-32.9-1.9-63.2,1.4-107.5,5l0-0.3c0.1-2.1,0.4-4.1,0.7-6.2c0.2-1,0.3-2,0.5-2.9c0.1-0.8,0.3-1.7,0.5-2.5
		C256.4,89.8,257.1,88.9,257.8,88z"/>
	<path fill-rule="evenodd" clip-rule="evenodd" fill="#1A1A18" d="M120.2,70.3c0,1.3,0.1,2.6,0.2,3.9c0.1,1.3,0.4,2.4,0.9,3.3
		c0.4,0.9,1,1.7,1.8,2.2c0.7,0.5,1.7,0.7,2.9,0.6c1.3-0.2,2.5-0.6,3.6-1.3c1.1-0.8,2.1-1.7,3-2.8c0.9-1.1,1.7-2.3,2.4-3.7
		c0.7-1.4,1.3-2.8,1.8-4.2c-0.5,0.1-1,0.3-1.5,0.3c-0.5,0.1-1,0.2-1.6,0.2c-2.8,0.3-5.2-0.2-7.2-1.6c-2-1.4-3.6-3.3-4.7-5.8
		c-0.4,1.6-0.8,3.1-1.1,4.6C120.4,67.6,120.2,69,120.2,70.3L120.2,70.3z M21.1,66.8c-1,4.1-2.1,8.5-3.1,13.2c-1,4.1-2,8.8-3.1,14.2
		c-1.1,5.4-2.3,11.1-3.5,17.2c0.4,0.3,1,0.5,1.8,0.6c0.7,0.1,1.5,0.1,2.2,0.2c0.8,0.1,1.7,0,2.6-0.1c3.3-0.4,6.6-1.5,10.1-3.2
		c3.4-1.8,6.5-4.1,9.4-6.9c2.9-2.8,5.3-6.1,7.2-9.9c1.9-3.8,3.1-7.9,3.5-12.3c0.2-2,0-3.8-0.4-5.3c-0.4-1.5-1-2.9-1.8-4.1
		c-0.8-1.2-1.7-2.2-2.6-3.1c-1-0.9-2-1.6-3.1-2.2c-3.4,2.2-7.1,4.2-11.1,5.9c-1.3,0.5-2.4,0.7-3.4,0.6c-1-0.2-1.8-0.5-2.4-0.9
		c-0.7-0.5-1.2-1-1.5-1.7C21.4,68.1,21.2,67.5,21.1,66.8L21.1,66.8z M23,59.3c-0.1,0.7-0.3,1.5-0.5,2.3c-0.2,0.8-0.4,1.5-0.6,2.4
		c0.9-1.1,2.4-2.1,4.5-3.2c2.1-1,4.1-1.7,6-1.9c1-0.1,2-0.2,3-0.2c0.9,0,1.9,0,2.7,0.1c2-1.6,4-3.5,6-5.8c1.9-2.3,3.6-4.8,5-7.3
		c1.4-2.6,2.6-5.1,3.5-7.7c0.9-2.6,1.5-5,1.7-7.1c0.4-5.1-0.4-8.8-2.6-11c-2.2-2.2-5.2-3.1-9.2-2.6c-2.6,0.3-5.4,1.1-8.2,2.4
		c-0.6,2-1.3,4.4-2.2,7.4c-0.9,2.9-1.8,6.1-2.8,9.6c-1,3.5-2,7.2-3.1,11C25,51.5,23.9,55.4,23,59.3L23,59.3z M59.4,82
		c-0.4,5-1.9,9.5-4.4,13.7c-2.5,4.2-5.6,7.8-9.5,11c-3.9,3.1-8.2,5.7-13,7.6c-4.8,2-9.8,3.2-15,3.8c-1.9,0.2-3.7,0.3-5.3,0.3
		c-1.7-0.1-3.1-0.2-4.4-0.4c-1.3-0.2-2.4-0.4-3.4-0.7c-0.9-0.2-1.6-0.4-1.9-0.6c-0.7-0.3-1.2-0.7-1.6-1.2c-0.4-0.5-0.6-1.3-0.7-2.3
		c-0.1-0.6-0.1-1-0.1-1.4c0-0.3,0-0.7,0.1-1.1c0.1-0.4,0.2-0.9,0.4-1.5c0.2-0.6,0.4-1.5,0.7-2.7c0.2-0.7,0.7-2.8,1.7-6.4
		c1-3.6,2.2-8,3.6-13.2c1.4-5.2,2.9-10.8,4.6-16.9c1.6-6.1,3.2-11.9,4.8-17.6c1.5-5.7,2.9-10.8,4.2-15.4c1.3-4.6,2.2-8,2.8-10.2
		c-1,0.9-2,1.7-3,2.7c-1,0.9-2,1.9-3,3c-1.1,1.1-2.2,1.6-3.2,1.4c-1.1-0.2-1.8-1-2.3-2.4c-0.1-0.7-0.2-1.5-0.3-2.3
		c-0.1-0.6-0.1-1.4,0.1-2.3c0.1-0.9,0.4-1.7,0.8-2.6c2.4-1.7,4.8-3.3,7.1-4.6c2.3-1.3,4.5-2.5,6.6-3.5c0.5-1.3,0.9-2.3,1.5-3
		c0.5-0.7,1.1-1.2,1.7-1.5c0.6-0.3,1.2-0.4,1.9-0.4c0.7,0,1.4,0,2.1,0.1c1.6,0.2,2.7,0.6,3.2,1.2c1-0.3,2-0.5,3-0.7
		c1-0.2,2-0.3,3-0.5c4.3-0.5,8-0.4,11.1,0.3c3.2,0.7,5.7,1.9,7.8,3.5c2,1.6,3.5,3.6,4.4,6c0.9,2.4,1.2,5,1,7.8
		c-0.2,2.4-0.9,5-1.9,7.8c-1.1,2.7-2.5,5.5-4.2,8.2c-1.7,2.7-3.8,5.4-6.2,8.1c-2.3,2.7-5,5.1-7.8,7.5c2.3,1.1,4.3,2.4,6,3.9
		c1.8,1.6,3.2,3.3,4.4,5.2c1.2,1.9,2,3.9,2.5,6C59.4,77.9,59.5,80,59.4,82L59.4,82z M75.9,75.5c0,1.3,0.1,2.6,0.2,3.9
		c0.1,1.3,0.4,2.4,0.9,3.3c0.4,0.9,1,1.7,1.8,2.2c0.7,0.5,1.7,0.7,2.9,0.6c1.3-0.2,2.5-0.6,3.6-1.3c1.1-0.8,2.1-1.7,3-2.8
		c0.9-1.1,1.7-2.3,2.4-3.7c0.7-1.4,1.3-2.8,1.8-4.2c-0.5,0.1-1,0.3-1.5,0.3c-0.5,0.1-1,0.2-1.6,0.2c-2.8,0.3-5.2-0.2-7.2-1.6
		c-2-1.4-3.6-3.3-4.7-5.8c-0.4,1.6-0.8,3.1-1.1,4.6C76,72.8,75.9,74.2,75.9,75.5L75.9,75.5z M82.9,55.3c1.1-1.5,2.3-2.7,3.6-3.7
		c1.3-0.9,2.6-1.5,4-1.6c0.9-0.1,1.6,0.2,2.3,0.9c0.6,0.7,1.1,1.6,1.5,2.8c0.4,1.2,0.7,2.5,0.8,3.9c0.1,1.4,0.1,2.9,0,4.3
		c0,0.6-0.1,1.3-0.3,2.1c-0.2,0.8-0.4,1.7-0.6,2.7c-0.4,0.1-0.7,0.2-1.1,0.3c-0.4,0.1-0.7,0.1-1.1,0.2c-2.3,0.3-4,0.1-5.3-0.4
		c-1.3-0.6-2.2-1.3-2.8-2.3c-0.6-1-1-2.1-1.1-3.3c-0.2-1.3-0.2-2.5-0.2-3.7C82.6,56.7,82.7,56,82.9,55.3L82.9,55.3z M101.5,69.9
		c-0.7,2.9-1.7,5.6-3,8.2c-1.2,2.6-2.7,4.8-4.4,6.8c-1.7,2-3.7,3.6-5.8,4.8c-2.2,1.3-4.5,2-7.1,2.3c-3,0.4-5.4,0-7.1-1.1
		c-1.7-1.1-3-2.5-3.8-4.3c-0.8-1.8-1.4-3.8-1.5-6.1c-0.2-2.3-0.3-4.4-0.3-6.4c0-1.4,0.2-2.9,0.5-4.7c0.3-1.7,0.8-3.5,1.4-5.3
		c0.6-1.8,1.4-3.7,2.3-5.5c0.9-1.9,2-3.6,3.2-5.2c0.4-1.3,1.1-2.5,2-3.5c0.9-1.1,2-2,3.2-2.7c1.2-0.8,2.5-1.4,3.9-1.9
		c1.4-0.5,2.7-0.8,4.1-1c0.2,0,0.4,0,0.6,0c0.2,0.1,0.4,0.1,0.6,0.2c1,0,2.1,0.2,3.6,0.7c1.4,0.5,2.8,1.3,4.2,2.5
		c1.4,1.2,2.5,2.7,3.5,4.6c0.9,1.9,1.4,4.3,1.4,7.2c0,0.6,0,1.3-0.1,2.2c-0.1,0.9-0.2,1.6-0.2,2.2c1.7-0.9,3.5-1.9,5.3-3
		c1.8-1.2,3.6-2.4,5.4-3.7c1.1-0.8,2.2-1.7,3.2-2.5c0.2-0.4,0.3-0.7,0.5-1.1c0.9-1.9,2-3.6,3.2-5.2c0.5-1.3,1.1-2.5,2-3.5
		c0.9-1.1,2-2,3.2-2.7c1.2-0.8,2.5-1.4,3.9-1.9c1.4-0.5,2.7-0.8,4.1-1c0.2,0,0.4,0,0.6,0c0.2,0.1,0.4,0.1,0.6,0.2
		c1,0,2.1,0.2,3.6,0.7c1.4,0.5,2.8,1.3,4.2,2.5c1.4,1.2,2.5,2.7,3.5,4.6c0.9,1.9,1.4,4.3,1.4,7.2c0,0.6,0,1.3-0.1,2.2
		c-0.1,0.9-0.2,1.6-0.2,2.2c1.7-0.9,3.5-1.9,5.3-3c1.8-1.2,3.6-2.4,5.4-3.7c1.7-1.3,3.3-2.5,4.8-3.8c0.9-0.8,1.7-1.5,2.4-2.2
		c0.4-2.3,0.9-4.7,1.4-7.2c0.9-4.7,1.9-9.2,2.9-13.6c-1.3,0.3-2.5,0.6-3.8,0.9c-1.2,0.3-2.4,0.5-3.4,0.6c-2.3,0.3-4.6,0.3-6.7,0
		c-2.1-0.3-3.6-0.7-4.7-1c-0.6-0.2-0.8-0.6-0.8-1.2c0.1-0.6,0.3-1.1,0.7-1.7c0.4-0.6,0.8-1.1,1.4-1.6c0.5-0.5,1-0.7,1.5-0.8
		c1.4,0,2.9-0.1,4.5-0.1c1.6-0.1,3.4-0.3,5.3-0.6c1.4-0.2,2.7-0.5,4-0.8c1.3-0.3,2.6-0.6,3.8-1c1-3.6,1.9-6.8,2.8-9.5
		c0.9-2.7,1.7-4.6,2.5-5.7c0.2-0.4,0.7-0.8,1.5-1.1c0.8-0.4,1.6-0.6,2.5-0.9c0.9-0.2,1.7-0.3,2.5-0.3c0.8,0,1.4,0.2,1.8,0.6
		c0.4,0.6,0.5,2,0.4,4.5c-0.1,2.4-0.5,5.6-1.2,9.4c3.1-0.4,5.8-0.5,8.2-0.5c2.4,0.1,4.4,0.2,6.1,0.4c1.7,0.2,3,0.5,4.1,0.7
		c1,0.3,1.8,0.5,2.3,0.6c0.5,0.1,0.8,0.4,0.8,1c0,0.6-0.1,1.2-0.3,1.8c-0.3,0.7-0.7,1.2-1.3,1.7c-0.6,0.5-1.2,0.7-2,0.7
		c-0.7,0-1.6,0-2.5-0.2c-0.9-0.1-2-0.2-3.3-0.2c-1.3,0-2.8,0-4.6,0.1c-1.8,0.1-3.8,0.2-6.2,0.5c-0.4,0.1-0.9,0.1-1.5,0.2
		c-0.5,0.1-1.1,0.2-1.7,0.3c-0.3,1.2-0.6,2.4-0.8,3.6c-0.3,1.2-0.6,2.4-1,3.7c-1,3-2.1,6.4-3.3,10c-1.1,3.1-2.4,6.7-4,10.8
		c-1.5,4.1-3.3,8.4-5.2,13c-0.4,3.2-0.4,5.6,0.2,7.2c0.5,1.6,1.2,2.7,2,3.3c0.9,0.7,2.1,1,3.5,0.9c1.1,0,2.4-0.5,4-1.6
		c1.6-1.1,3.2-2.5,4.9-4.3c1.7-1.7,3.4-3.6,5.1-5.7c1.7-2,3.3-4,4.8-5.9c1.1-1.4,2.1-2.7,2.9-4c0.1-0.5,0.2-1,0.3-1.5
		c0.6-3.4,1.4-6.7,2.3-9.8c0.9-3.1,2-5.5,3.1-7.1c0.4-0.5,1.1-0.9,2.1-1.4c1-0.4,2.1-0.8,3.2-1.1c1.1-0.3,2.1-0.5,3-0.7
		c0.9-0.1,1.4-0.2,1.6-0.2c0.1,0.1-0.1,0.9-0.5,2.4c-0.5,1.5-1,3.3-1.7,5.4c-0.7,2-1.4,4.2-2.1,6.3c-0.7,2.2-1.3,3.9-1.7,5.3
		c-0.4,1.4-0.8,2.9-1.3,4.6c-0.5,1.7-1,3.4-1.4,5c-0.4,1.6-0.7,3.1-0.8,4.5c-0.1,1.4,0,2.5,0.3,3.2c0.4,0.8,0.8,1.4,1.2,1.7
		c0.4,0.3,0.9,0.4,1.4,0.3c1.5-0.2,3.3-1.2,5.6-3.1c2.2-1.9,4.5-4.1,6.8-6.6c2.2-2.4,4.3-4.8,6.2-7.3c0.3-1.5,0.8-3,1.3-4.6
		c1.3-3.6,3.1-7,5.3-10.1c2.2-3.1,4.7-5.8,7.5-7.9c2.8-2.1,5.7-3.4,8.6-3.7c1.8-0.2,3.4,0,4.6,0.6c1.2,0.6,2.3,1.4,3.1,2.4
		c0.8,1,1.4,2.1,1.8,3.3c0.4,1.2,0.7,2.3,0.8,3.2c0.1-0.9,0.3-1.8,0.4-2.8c0.2-0.8,0.3-1.7,0.4-2.7c0.2-1,0.3-1.9,0.4-2.8
		c0.4-0.4,0.9-0.8,1.5-1.1c0.5-0.3,1.1-0.5,1.7-0.7c0.7-0.2,1.3-0.4,2-0.6c0.7-0.1,1.3-0.1,1.9-0.1c1.2,0,2,0.3,2.4,0.9
		c-2.1,7-3.5,12.2-4.4,15.7c-0.5,2-0.9,3.7-1.2,5.1c-0.3,1-0.7,2.7-1.3,4.9c-0.6,2.2-1.2,4.7-1.9,7.6c-0.7,2.9-1.5,6-2.3,9.2
		c-0.8,3.3-1.6,6.5-2.3,9.7c1.6-1.8,3.4-3.7,5.2-5.8c1.9-2,3.8-4.2,5.7-6.4c1.9-2.2,3.8-4.4,5.7-6.8c1.8-2.2,3.5-4.5,5.1-6.7
		c0.1-1.3,0.2-2.6,0.4-4c0.4-2.5,0.8-4.8,1.3-7c0.5-2.2,1-4,1.4-5.5c0.4-1.5,0.7-2.5,0.8-2.9c0.7-2.2,1.5-4.2,2.6-5.9
		c1-1.7,2.5-2.9,4.4-3.8c0.7-0.2,1.5-0.5,2.3-0.7c0.7-0.2,1.3-0.3,2-0.4c0.7-0.1,1.4,0,1.9,0.1c-2,5.3-3.5,9.7-4.7,13.2
		c-1.1,3.5-2,6.4-2.6,8.6c-0.7,2.5-1.1,4.5-1.2,6c-0.4,3.3-0.1,5.8,0.9,7.4c1,1.6,2.9,2.2,5.8,1.8c1.9-0.2,3.7-1.2,5.5-2.8
		c1.8-1.6,3.4-3.7,4.8-6.1c-0.2-1.2-0.3-2.3-0.3-3.6c0-2.3,0.2-4.7,0.6-6.9c0.4-2.3,0.9-4.4,1.4-6.4c0.5-2,1.1-3.8,1.7-5.4
		c0.6-1.6,1.2-2.9,1.6-3.8c0.8-1.8,1.5-3,2.2-3.5c0.7-0.5,1.7-0.8,3.2-1.1c0.6-0.1,1.1-0.2,1.5-0.2c0.4,0,0.8,0,1,0
		c0.9,0.1,1.3,0.5,1.3,1.2c0,1.2-0.1,2.9-0.2,5.3c-0.2,2.4-0.6,4.8-1.3,7.4c-0.5,2.1-1,3.9-1.5,5.4c-0.5,1.5-0.9,2.7-1.4,3.8
		c-0.4,1-0.9,1.9-1.3,2.6c-0.5,0.7-0.8,1.3-1.2,1.9c0.2,2.2,0.3,3.9,0.6,5.2c0.2,1.3,0.5,2.3,0.8,2.9c0.3,0.7,0.7,1.1,1.2,1.3
		c0.5,0.2,1,0.3,1.6,0.2c1-0.1,2.2-0.7,3.6-1.9c1.4-1.2,2.9-2.6,4.4-4.2c1.5-1.7,3-3.5,4.5-5.5c0.9-1.2,1.7-2.3,2.5-3.4
		c0.4-2.8,1.3-5.7,2.7-8.8c1.6-3.5,3.5-6.8,5.8-9.9c2.3-3.1,4.9-5.7,7.8-7.8c2.9-2.2,5.8-3.4,8.7-3.8c2.8-0.3,4.8,0.1,6.1,1.4
		c1.2,1.2,1.8,2.9,1.7,5c-0.2,2.3-0.9,4.5-1.9,6.5c-1.1,2-2.3,3.9-3.8,5.6c-1.5,1.7-3,3.3-4.7,4.7c-1.7,1.4-3.2,2.8-4.7,3.9
		c-1.6,1.3-3.2,2.5-4.6,3.7c-1.5,1.2-2.8,2.2-3.8,3.2c0.1,1.8,0.4,3.3,1,4.5c0.6,1.2,1.3,2.1,2.2,2.8c0.9,0.7,1.9,1.1,3,1.3
		c1.1,0.2,2.3,0.2,3.5,0.1c2.5-0.3,5.1-1.4,7.8-3.3c2.7-1.9,5.4-4.1,8-6.6c2.6-2.5,5-5.2,7.3-7.8c2.2-2.7,4.1-5,5.6-6.9
		c0.5-0.7,1-1.1,1.6-1.2c0.5-0.2,1-0.2,1.3,0.1c0.3,0.2,0.5,0.6,0.5,1.3c0,0.6-0.2,1.4-0.8,2.2c-2.2,3.5-4.7,6.9-7.5,10.3
		c-2.8,3.4-5.7,6.4-8.9,9.2s-6.3,5-9.6,6.9c-3.2,1.9-6.4,3-9.5,3.3c-1.6,0.2-3.4,0-5.2-0.5c-1.9-0.6-3.6-1.5-5.1-3
		c-1.5-1.4-2.8-3.4-3.7-5.8c-0.3-0.9-0.6-2-0.8-3.1c-1,1.4-2.1,2.8-3.2,4.1c-2.5,2.9-4.9,5.4-7.4,7.5c-2.5,2.1-4.8,3.2-7,3.5
		c-2,0.2-3.5-0.3-4.7-1.5c-1.1-1.2-2.1-3.1-2.9-5.5c-1.7,2.8-3.7,5.1-5.9,6.8c-2.3,1.7-4.8,2.7-7.6,3c-2.8,0.3-5.1,0.1-6.8-0.5
		c-1.7-0.7-3.1-1.6-4.1-2.7c-1-1.2-1.7-2.5-2.1-3.9c-0.1-0.4-0.2-0.9-0.3-1.3l-0.8,1.2c-1.4,2-2.8,3.9-4.3,5.9c-1.5,2-3,3.9-4.6,5.9
		c-1.5,1.9-3,3.7-4.4,5.4c-1.5,1.6-3.1,3.4-4.8,5.2c-1.7,1.9-3.5,4-5.2,6.4c-0.3,1.4-0.5,2.7-0.7,3.8c-0.2,1.1-0.4,2.1-0.5,3
		c-0.4,2.6-0.6,4.8-0.7,6.6s-0.2,3.4-0.2,4.7c0,1.4,0,2.6,0.1,3.7c0.1,1.1,0.1,2.3,0.1,3.6c0.1,2.6,0,4.5-0.3,5.5
		c-0.3,1-1.1,1.7-2.6,1.8c-0.7,0.1-1.7-0.1-2.9-0.7c-1.2-0.5-2.3-1.3-3.4-2.4c-1.1-1-2-2.4-2.8-3.9c-0.8-1.6-1.2-3.5-1.2-5.6
		c0-2.8,0.5-5.6,1.7-8.4c1.1-2.8,2.6-5.6,4.4-8.4c0.5-1.9,1.1-4,1.7-6.4c0.6-2.4,1.3-4.8,1.9-7.2c0.7-2.4,1.3-4.9,2-7.4
		c0.7-2.5,1.3-4.8,1.9-7.1c-0.8,1.2-1.7,2.4-2.6,3.6c-1,1.2-2,2.3-3.1,3.3c-1.1,1-2.3,1.9-3.5,2.6c-1.3,0.7-2.6,1.1-4,1.3
		c-3.5,0.4-6.1,0-8-1.2c-1.9-1.2-3.3-2.6-4.2-4.4c-0.9-1.8-1.5-3.7-1.7-5.7c-0.1-1-0.2-2-0.2-2.8c-1.3,1.6-2.6,3.1-3.9,4.6
		c-2.6,2.9-5.1,5.4-7.5,7.5s-4.5,3.3-6,3.6c-1.2,0.2-2.5,0.2-3.7-0.2c-1.2-0.3-2.3-0.9-3.3-1.6c-1-0.7-1.8-1.6-2.5-2.7
		c-0.7-1-1-2.2-1.1-3.4c-0.2-1.8-0.2-4.3,0-7.5l0-0.1c-2.2,3.2-4.5,6.2-7,9.1c-2.6,3.1-5.2,5.8-7.7,7.9c-2.5,2.1-4.6,3.3-6.3,3.5
		c-2.4,0.3-4.4,0-6-0.7c-1.6-0.8-2.9-1.8-3.8-3.1c-0.9-1.3-1.6-2.7-1.9-4.3c-0.4-1.6-0.5-3.1-0.3-4.5c0.1-1.2,0.3-3.3,0.8-6.4
		c0.4-3.1,1-6.7,1.7-10.8l0-0.1c-1.2,1.1-2.6,2.4-4.1,3.7c-2,1.8-4.3,3.5-6.7,5.3c-2.4,1.7-4.7,3.1-6.9,4.1c-0.7,2.9-1.7,5.6-3,8.2
		c-1.2,2.6-2.7,4.8-4.4,6.8c-1.7,2-3.7,3.6-5.8,4.8c-2.2,1.2-4.5,2-7.1,2.3c-3,0.4-5.4,0-7.1-1.1c-1.7-1.1-3-2.5-3.8-4.3
		c-0.8-1.8-1.4-3.8-1.5-6.1c-0.2-2.3-0.3-4.4-0.3-6.4c0-1.4,0.2-2.9,0.5-4.7c0.2-0.9,0.4-1.7,0.6-2.6c-1.7,1.4-3.5,2.8-5.4,4.2
		C106,67.5,103.7,68.9,101.5,69.9L101.5,69.9z M127.2,50.1c1.1-1.5,2.3-2.7,3.6-3.7c1.3-0.9,2.6-1.5,4-1.6c0.9-0.1,1.6,0.2,2.3,0.9
		c0.6,0.7,1.1,1.6,1.5,2.8c0.4,1.2,0.7,2.5,0.8,3.9c0.1,1.4,0.1,2.9,0,4.3c0,0.6-0.1,1.3-0.3,2.1c-0.2,0.8-0.4,1.7-0.6,2.7
		c-0.4,0.1-0.7,0.2-1.1,0.3c-0.4,0.1-0.7,0.1-1.1,0.2c-2.3,0.3-4,0.1-5.3-0.4c-1.3-0.6-2.2-1.3-2.8-2.3c-0.6-1-1-2.1-1.1-3.3
		c-0.2-1.3-0.2-2.5-0.2-3.7C126.9,51.5,127,50.8,127.2,50.1L127.2,50.1z M215.8,9.1c0.2-0.8,0.3-1.6,0.3-2.6c0-1-0.2-1.8-0.5-2.5
		c-0.3-0.7-0.7-1.3-1.3-1.7c-0.5-0.4-1.2-0.5-2-0.3c-0.8,0.2-1.8,0.9-2.9,1.8c-1.1,1-2,2.1-2.7,3.4c-0.7,1.3-1.1,2.6-1,4
		c0.1,1.3,0.9,2.5,2.4,3.5c0.5,0.4,1.2,0.4,2,0.2c0.8-0.2,1.6-0.6,2.4-1.2c0.8-0.6,1.5-1.3,2.1-2.1C215.1,10.8,215.6,10,215.8,9.1
		L215.8,9.1z M231.4,60.6c0,2.1,0.3,3.7,0.8,4.8c0.5,1.1,1.2,1.9,2,2.4c0.8,0.5,1.6,0.7,2.4,0.7c0.8,0,1.5-0.1,2-0.1
		c1.6-0.2,3.1-1,4.5-2.5c1.5-1.5,2.8-3.2,4-5.3c1.2-2,2.3-4.2,3.2-6.6c0.9-2.3,1.6-4.5,2-6.5c0.2-1.1,0.4-2.1,0.6-3
		c0.2-0.9,0.4-1.7,0.5-2.3c-1.4,0.3-2.4,0.1-2.9-0.5c-0.5-0.7-0.8-1.9-0.9-3.7c0-0.7-0.1-1.5-0.2-2.3c-0.2-0.8-0.4-1.6-0.8-2.2
		c-0.4-0.7-0.8-1.2-1.4-1.5c-0.6-0.4-1.3-0.5-2.2-0.4c-1.9,0.2-3.7,1.3-5.3,3.3c-1.7,2-3.1,4.4-4.3,7.2c-1.3,2.8-2.2,5.9-2.9,9.2
		C231.7,54.6,231.4,57.7,231.4,60.6L231.4,60.6z M349.1,18.4c-0.9,0.1-1.9,0.7-3.1,1.7c-1.2,1-2.4,2.4-3.6,4.2
		c-1.2,1.8-2.3,3.9-3.3,6.5c-1,2.5-1.8,5.3-2.3,8.5c0.9-0.8,1.8-1.5,2.9-2.4c1-0.8,2.1-1.7,3.1-2.6c3.1-2.8,5.4-5.2,6.6-7.2
		c1.2-2,2-3.6,2.1-5c0.1-1.4,0-2.4-0.4-3C350.5,18.6,349.9,18.3,349.1,18.4z"/>
</g>
</svg>
