<?xml version="1.0" standalone="no"?>
<!DOCTYPE svg PUBLIC "-//W3C//DTD SVG 20010904//EN"
 "http://www.w3.org/TR/2001/REC-SVG-20010904/DTD/svg10.dtd">
<svg version="1.0" xmlns="http://www.w3.org/2000/svg"
 width="700.000000pt" height="700.000000pt" viewBox="0 0 700.000000 700.000000"
 preserveAspectRatio="xMidYMid meet">
<metadata>
Created by potrace 1.11, written by Peter Selinger 2001-2013
</metadata>
<g transform="translate(0.000000,700.000000) scale(0.100000,-0.100000)"
fill="#000000" stroke="none">
<path d="M4027 6244 c-1 -1 -36 -5 -77 -8 -83 -7 -119 -12 -197 -27 -29 -6
-54 -10 -55 -9 -2 1 -15 -3 -31 -9 -22 -8 -35 -7 -65 9 -76 39 -228 47 -294
16 -49 -23 -71 -49 -115 -135 l-38 -73 -160 -87 c-289 -156 -447 -261 -473
-311 -21 -44 -24 -244 -3 -303 15 -45 54 -84 93 -92 57 -13 88 4 202 114 61
58 127 120 147 136 19 17 45 38 57 49 l21 18 -20 -68 c-10 -38 -32 -118 -49
-179 -16 -60 -83 -310 -150 -555 -67 -245 -128 -470 -136 -500 -21 -78 -43
-159 -55 -200 -13 -48 -80 -290 -86 -315 -3 -11 -55 -202 -115 -425 -61 -223
-112 -413 -114 -422 -8 -35 -14 -57 -89 -333 -42 -154 -93 -345 -114 -425 -21
-80 -53 -199 -71 -265 -64 -235 -31 -353 111 -397 204 -62 493 -79 729 -43
562 88 1062 341 1395 706 85 93 101 113 172 220 120 181 182 333 228 560 47
232 9 465 -111 672 -53 91 -67 109 -159 203 -83 84 -154 138 -252 191 l-72 39
62 53 c499 427 843 1006 852 1431 5 221 -54 386 -184 519 -126 128 -310 209
-536 237 -46 6 -244 12 -248 8z m133 -281 c178 -58 260 -153 295 -346 12 -64
12 -237 1 -320 -8 -57 -56 -225 -83 -286 -13 -29 -23 -58 -23 -63 0 -18 -114
-244 -168 -333 -80 -131 -193 -277 -295 -382 -137 -141 -136 -140 -302 -146
-167 -6 -236 -22 -375 -85 -55 -25 -142 -81 -178 -116 l-33 -31 6 34 c3 19 8
38 10 41 3 4 7 25 11 45 8 55 8 55 58 250 25 99 75 284 111 410 36 127 67 239
70 250 3 11 13 49 24 85 11 36 50 169 86 295 37 127 90 304 117 395 28 91 52
174 55 186 5 20 64 48 176 84 146 46 348 61 437 33z m-293 -2182 c49 -30 73
-51 141 -121 69 -71 130 -181 158 -285 21 -81 21 -224 -1 -370 -15 -102 -65
-264 -118 -377 -260 -564 -863 -985 -1376 -962 -69 4 -151 22 -151 34 0 4 14
74 31 156 17 82 33 160 35 174 5 24 101 487 109 525 3 11 12 54 20 95 8 41 17
84 19 95 3 11 19 83 36 160 64 279 93 410 104 470 1 6 20 84 41 174 l39 164
19 -44 c53 -125 157 -179 289 -149 65 15 317 137 453 219 55 33 105 60 110 60
6 1 24 -8 42 -18z"/>
<path d="M4580 1397 c-3 -3 -45 -8 -93 -12 -48 -3 -96 -8 -105 -10 -9 -1 -53
-6 -97 -9 -44 -4 -123 -13 -175 -21 -52 -7 -117 -16 -145 -20 -70 -9 -112 -15
-175 -25 -30 -5 -71 -12 -90 -15 -30 -5 -103 -18 -220 -39 -191 -34 -572 -127
-795 -192 -139 -41 -475 -153 -490 -163 -5 -4 -36 -16 -67 -26 -32 -11 -58
-25 -58 -31 0 -7 16 -43 36 -81 20 -37 48 -90 62 -118 14 -27 30 -55 35 -62 6
-8 38 -1 120 28 133 46 410 127 580 170 184 46 201 50 217 54 144 32 260 57
280 61 14 2 45 9 70 14 25 5 57 12 73 14 29 5 126 23 167 31 13 3 42 7 65 10
22 3 47 8 55 10 8 2 33 6 55 9 22 4 51 8 65 11 14 3 41 7 60 9 19 3 91 12 160
21 135 18 154 20 275 30 44 4 87 9 95 11 8 1 24 3 35 3 19 1 20 7 17 163 -3
167 -4 183 -12 175z"/>
</g>
</svg>
